<svg width="512" height="180" viewBox="0 0 512 180" fill="none" xmlns="http://www.w3.org/2000/svg">
<g filter="url(#filter0_d_85_14)">
<path d="M2.00044 161.764V16.3096H32.7533V80.4431H34.6709L87.0146 16.3096H123.875L69.8982 81.4375L124.515 161.764H87.7249L47.8811 101.963L32.7533 120.429V161.764H2.00044ZM170.431 163.824C163.471 163.824 157.268 162.616 151.823 160.202C146.378 157.74 142.069 154.117 138.897 149.335C135.772 144.506 134.209 138.492 134.209 131.295C134.209 125.235 135.322 120.145 137.547 116.026C139.773 111.906 142.803 108.592 146.638 106.082C150.473 103.573 154.83 101.679 159.706 100.401C164.631 99.1221 169.792 98.2225 175.189 97.7017C181.534 97.0388 186.648 96.4232 190.53 95.8551C194.413 95.2395 197.23 94.3399 198.982 93.1562C200.734 91.9725 201.61 90.2206 201.61 87.9005V87.4744C201.61 82.9763 200.189 79.4962 197.348 77.034C194.555 74.5719 190.578 73.3409 185.417 73.3409C179.972 73.3409 175.639 74.5482 172.419 76.963C169.2 79.3304 167.069 82.3134 166.027 85.9119L138.044 83.6392C139.465 77.0104 142.258 71.2812 146.425 66.4517C150.592 61.5748 155.966 57.8342 162.547 55.2301C169.176 52.5786 176.847 51.2528 185.559 51.2528C191.619 51.2528 197.419 51.963 202.959 53.3835C208.546 54.8039 213.494 57.0056 217.803 59.9886C222.159 62.9715 225.592 66.8068 228.101 71.4943C230.611 76.1344 231.865 81.6979 231.865 88.1846V161.764H203.172V146.636H202.32C200.568 150.045 198.224 153.052 195.289 155.656C192.353 158.213 188.826 160.225 184.706 161.693C180.587 163.114 175.829 163.824 170.431 163.824ZM179.096 142.943C183.546 142.943 187.476 142.067 190.885 140.315C194.294 138.516 196.97 136.101 198.911 133.071C200.852 130.041 201.823 126.608 201.823 122.773V111.196C200.876 111.812 199.574 112.38 197.917 112.901C196.307 113.374 194.484 113.824 192.448 114.25C190.412 114.629 188.376 114.984 186.34 115.315C184.304 115.599 182.457 115.86 180.8 116.097C177.249 116.617 174.148 117.446 171.496 118.582C168.845 119.719 166.785 121.258 165.317 123.199C163.849 125.093 163.116 127.46 163.116 130.301C163.116 134.42 164.607 137.569 167.59 139.747C170.62 141.878 174.455 142.943 179.096 142.943ZM255.339 161.764V52.6732H285.594V161.764H255.339ZM270.537 38.6107C266.039 38.6107 262.18 37.1193 258.961 34.1363C255.788 31.106 254.202 27.4839 254.202 23.2698C254.202 19.1032 255.788 15.5284 258.961 12.5454C262.18 9.5151 266.039 7.99995 270.537 7.99995C275.035 7.99995 278.871 9.5151 282.043 12.5454C285.263 15.5284 286.873 19.1032 286.873 23.2698C286.873 27.4839 285.263 31.106 282.043 34.1363C278.871 37.1193 275.035 38.6107 270.537 38.6107ZM309.831 161.764V52.6732H339.163V71.7073H340.299C342.288 64.9365 345.626 59.8229 350.314 56.3664C355.001 52.8626 360.399 51.1107 366.507 51.1107C368.022 51.1107 369.656 51.2054 371.407 51.3948C373.159 51.5842 374.698 51.8447 376.024 52.1761V79.0227C374.603 78.5965 372.638 78.2178 370.129 77.8863C367.62 77.5549 365.323 77.3892 363.24 77.3892C358.789 77.3892 354.812 78.3598 351.308 80.3011C347.852 82.195 345.105 84.8465 343.069 88.2556C341.081 91.6647 340.086 95.5947 340.086 100.045V161.764H309.831ZM435.878 163.895C424.846 163.895 415.305 161.551 407.256 156.864C399.254 152.129 393.075 145.547 388.719 137.119C384.363 128.644 382.185 118.819 382.185 107.645C382.185 96.3759 384.363 86.5274 388.719 78.0994C393.075 69.624 399.254 63.0426 407.256 58.3551C415.305 53.6202 424.846 51.2528 435.878 51.2528C446.91 51.2528 456.428 53.6202 464.429 58.3551C472.479 63.0426 478.681 69.624 483.037 78.0994C487.393 86.5274 489.571 96.3759 489.571 107.645C489.571 118.819 487.393 128.644 483.037 137.119C478.681 145.547 472.479 152.129 464.429 156.864C456.428 161.551 446.91 163.895 435.878 163.895ZM436.02 140.457C441.039 140.457 445.23 139.037 448.591 136.196C451.953 133.308 454.486 129.378 456.191 124.406C457.943 119.435 458.819 113.776 458.819 107.432C458.819 101.087 457.943 95.4289 456.191 90.4573C454.486 85.4857 451.953 81.5558 448.591 78.6676C445.23 75.7793 441.039 74.3352 436.02 74.3352C430.954 74.3352 426.693 75.7793 423.236 78.6676C419.827 81.5558 417.247 85.4857 415.495 90.4573C413.79 95.4289 412.938 101.087 412.938 107.432C412.938 113.776 413.79 119.435 415.495 124.406C417.247 129.378 419.827 133.308 423.236 136.196C426.693 139.037 430.954 140.457 436.02 140.457Z" fill="white"/>
</g>
<defs>
<filter id="filter0_d_85_14" x="0" y="0" width="511.571" height="179.895" filterUnits="userSpaceOnUse" color-interpolation-filters="sRGB">
<feFlood flood-opacity="0" result="BackgroundImageFix"/>
<feColorMatrix in="SourceAlpha" type="matrix" values="0 0 0 0 0 0 0 0 0 0 0 0 0 0 0 0 0 0 127 0" result="hardAlpha"/>
<feOffset dx="10" dy="4"/>
<feGaussianBlur stdDeviation="6"/>
<feComposite in2="hardAlpha" operator="out"/>
<feColorMatrix type="matrix" values="0 0 0 0 0 0 0 0 0 0 0 0 0 0 0 0 0 0 0.5 0"/>
<feBlend mode="normal" in2="BackgroundImageFix" result="effect1_dropShadow_85_14"/>
<feBlend mode="normal" in="SourceGraphic" in2="effect1_dropShadow_85_14" result="shape"/>
</filter>
</defs>
</svg>
